#N canvas -1580 425 679 492 10;
#X floatatom 374 271 5 0 0 0 - - -;
#X floatatom 69 263 5 0 0 0 - - -;
#X obj 58 177 readsf~;
#X obj 61 70 openpanel;
#X msg 59 41 bang;
#X obj 131 176 print;
#X msg 14 121 1;
#X msg 14 148 0;
#X msg 56 138 open \$1;
#X obj 62 101 t b a;
#X obj 69 213 sigmund~ -minpower 30 -stabletime 20 -npeak 10 pitch
env;
#X msg 12 329 connect localhost 7770;
#X obj 189 245 pack float float;
#X obj 197 337 mrpeach/packOSC;
#X msg 15 304 disconnect;
#X obj 69 237 mtof;
#X obj 376 245 dbtorms;
#X msg 173 293 sendtyped /mrp/ptrk/pitch ff \$1 \$2;
#X msg 304 380 sendtyped /mrp/ptrk/mute f 1;
#X msg 305 404 sendtyped /mrp/ptrk/mute f 0;
#X obj 297 122 adc~;
#X obj 538 264 *~;
#X msg 327 68 \; table10 cosinesum 256 1 0.3 0.2 0.1 0.05 0.03 0.02
0.01;
#X obj 520 218 tabosc4~ table10;
#X obj 160 374 mrpeach/udpsend;
#X connect 0 0 12 1;
#X connect 0 0 21 1;
#X connect 1 0 12 0;
#X connect 1 0 23 0;
#X connect 2 0 10 0;
#X connect 3 0 9 0;
#X connect 4 0 3 0;
#X connect 6 0 2 0;
#X connect 7 0 2 0;
#X connect 8 0 5 0;
#X connect 8 0 2 0;
#X connect 9 0 6 0;
#X connect 9 1 8 0;
#X connect 10 0 15 0;
#X connect 10 1 16 0;
#X connect 11 0 24 0;
#X connect 12 0 17 0;
#X connect 13 0 24 0;
#X connect 14 0 24 0;
#X connect 15 0 1 0;
#X connect 16 0 0 0;
#X connect 17 0 13 0;
#X connect 18 0 13 0;
#X connect 19 0 13 0;
#X connect 20 0 10 0;
#X connect 20 1 10 0;
#X connect 23 0 21 0;
